<mxfile host="app.diagrams.net" agent="Mozilla/5.0 (Windows NT 10.0; Win64; x64) AppleWebKit/537.36 (KHTML, like Gecko) Chrome/135.0.0.0 Safari/537.36" version="26.2.12">
  <diagram name="Page-1" id="Zs_Jy0TVCGw7guP8ykBr">
    <mxGraphModel dx="2341" dy="753" grid="1" gridSize="10" guides="1" tooltips="1" connect="1" arrows="1" fold="1" page="1" pageScale="1" pageWidth="850" pageHeight="1100" math="0" shadow="0">
      <root>
        <mxCell id="0" />
        <mxCell id="1" parent="0" />
        <mxCell id="WTZhNITrZCh8ZxXwkwh3-8" style="edgeStyle=orthogonalEdgeStyle;rounded=0;orthogonalLoop=1;jettySize=auto;html=1;exitX=1;exitY=0.5;exitDx=0;exitDy=0;entryX=0;entryY=0.5;entryDx=0;entryDy=0;strokeWidth=3;" edge="1" parent="1" source="WTZhNITrZCh8ZxXwkwh3-1" target="WTZhNITrZCh8ZxXwkwh3-2">
          <mxGeometry relative="1" as="geometry">
            <Array as="points">
              <mxPoint x="-560" y="600" />
              <mxPoint x="-380" y="600" />
              <mxPoint x="-380" y="280" />
            </Array>
          </mxGeometry>
        </mxCell>
        <mxCell id="WTZhNITrZCh8ZxXwkwh3-9" style="edgeStyle=orthogonalEdgeStyle;rounded=0;orthogonalLoop=1;jettySize=auto;html=1;exitX=1;exitY=0.5;exitDx=0;exitDy=0;entryX=0;entryY=0.5;entryDx=0;entryDy=0;strokeWidth=3;" edge="1" parent="1" source="WTZhNITrZCh8ZxXwkwh3-1" target="WTZhNITrZCh8ZxXwkwh3-4">
          <mxGeometry relative="1" as="geometry">
            <Array as="points">
              <mxPoint x="-560" y="600" />
            </Array>
          </mxGeometry>
        </mxCell>
        <mxCell id="WTZhNITrZCh8ZxXwkwh3-10" style="edgeStyle=orthogonalEdgeStyle;rounded=0;orthogonalLoop=1;jettySize=auto;html=1;exitX=1;exitY=0.5;exitDx=0;exitDy=0;entryX=0;entryY=0.5;entryDx=0;entryDy=0;strokeWidth=3;" edge="1" parent="1" source="WTZhNITrZCh8ZxXwkwh3-1" target="WTZhNITrZCh8ZxXwkwh3-5">
          <mxGeometry relative="1" as="geometry">
            <Array as="points">
              <mxPoint x="-560" y="600" />
              <mxPoint x="-380" y="600" />
              <mxPoint x="-380" y="920" />
            </Array>
          </mxGeometry>
        </mxCell>
        <mxCell id="WTZhNITrZCh8ZxXwkwh3-1" value="Synthesis" style="rounded=1;whiteSpace=wrap;html=1;fontSize=30;strokeWidth=3;" vertex="1" parent="1">
          <mxGeometry x="-830" y="200" width="270" height="800" as="geometry" />
        </mxCell>
        <mxCell id="WTZhNITrZCh8ZxXwkwh3-2" value="Translation" style="rounded=1;whiteSpace=wrap;html=1;fontSize=30;strokeWidth=3;" vertex="1" parent="1">
          <mxGeometry x="-300" y="200" width="270" height="160" as="geometry" />
        </mxCell>
        <mxCell id="WTZhNITrZCh8ZxXwkwh3-4" value="Logic Optimization" style="rounded=1;whiteSpace=wrap;html=1;fontSize=30;strokeWidth=3;" vertex="1" parent="1">
          <mxGeometry x="-290" y="520" width="270" height="160" as="geometry" />
        </mxCell>
        <mxCell id="WTZhNITrZCh8ZxXwkwh3-5" value="Gate Mapping (Technology Map)" style="rounded=1;whiteSpace=wrap;html=1;fontSize=30;strokeWidth=3;" vertex="1" parent="1">
          <mxGeometry x="-290" y="840" width="270" height="160" as="geometry" />
        </mxCell>
        <mxCell id="WTZhNITrZCh8ZxXwkwh3-6" value="" style="shape=cross;whiteSpace=wrap;html=1;strokeWidth=3;" vertex="1" parent="1">
          <mxGeometry x="-205" y="400" width="80" height="80" as="geometry" />
        </mxCell>
        <mxCell id="WTZhNITrZCh8ZxXwkwh3-7" value="" style="shape=cross;whiteSpace=wrap;html=1;strokeWidth=3;" vertex="1" parent="1">
          <mxGeometry x="-205" y="720" width="80" height="80" as="geometry" />
        </mxCell>
        <mxCell id="WTZhNITrZCh8ZxXwkwh3-13" value="Synthesis Transformation" style="text;html=1;align=center;verticalAlign=middle;resizable=0;points=[];autosize=1;strokeColor=none;fillColor=none;fontSize=50;" vertex="1" parent="1">
          <mxGeometry x="-700" y="40" width="590" height="70" as="geometry" />
        </mxCell>
      </root>
    </mxGraphModel>
  </diagram>
</mxfile>
